<?xml version="1.0" encoding="UTF-8"?>
<svg version="1.1" xmlns="http://www.w3.org/2000/svg" width="512" height="512">
<path d="M0 0 C1.78682525 -0.00299724 3.57364986 -0.00640106 5.36047363 -0.01017761 C10.18725953 -0.01896544 15.01402767 -0.02135355 19.84082079 -0.0219934 C22.86506742 -0.022707 25.88930962 -0.02484719 28.91355515 -0.02749062 C39.48892246 -0.03672758 50.06427722 -0.04082767 60.63964844 -0.04003906 C70.45695018 -0.03943908 80.27419684 -0.0499795 90.09148467 -0.06578273 C98.55305125 -0.07891232 107.01459995 -0.08422068 115.47617662 -0.08358365 C120.51518023 -0.08333021 125.55413485 -0.08609576 130.5931282 -0.0967617 C135.33908327 -0.10653411 140.08494343 -0.1064601 144.8309021 -0.09924507 C146.55888383 -0.09821041 148.28687176 -0.10049437 150.01484299 -0.10660553 C174.70618994 -0.18817507 201.32526656 1.78469185 220.01708984 19.89526367 C242.89329357 44.25144361 240.28903475 80.6090639 240.29833984 111.73901367 C240.30156286 114.30041522 240.30492766 116.86181659 240.3084259 119.42321777 C240.31438168 124.77197774 240.31631295 130.12072078 240.31567383 135.46948242 C240.31507536 141.57975332 240.3255962 147.6899353 240.34141749 153.80018377 C240.35627625 159.7593949 240.35965631 165.71857999 240.3590641 171.67781067 C240.36022748 174.17471173 240.36455418 176.67161379 240.37239647 179.16850281 C240.5633967 246.26623881 240.5633967 246.26623881 219.63037109 269.20776367 C200.03817312 287.90431831 171.63946104 288.29028012 146.23583984 288.38354492 C145.29358362 288.38762045 144.3513274 288.39169598 143.38051796 288.395895 C138.40691991 288.41662022 133.43334845 288.43098808 128.4597168 288.44042969 C123.33408495 288.45155594 118.2088798 288.48606525 113.08339977 288.52560139 C109.12597344 288.55173164 105.16865042 288.56011758 101.2111454 288.56371117 C99.32092672 288.56857465 97.43071258 288.58018183 95.54057884 288.59874916 C92.90113243 288.62309785 90.26281534 288.62218537 87.62329102 288.61523438 C86.46129936 288.63444946 86.46129936 288.63444946 85.27583313 288.65405273 C80.06489275 288.60410149 77.14997921 287.42216428 73.13037109 284.14526367 C69.04682293 279.62025084 67.81407691 276.35461077 67.91552734 270.19995117 C68.51071113 264.50782986 71.98069014 260.77623451 76.13037109 257.14526367 C79.82164875 255.91483779 83.27954006 255.93968536 87.12744141 255.87988281 C87.94259216 255.86344223 88.75774292 255.84700165 89.59759521 255.83006287 C91.37033528 255.79479367 93.14311791 255.76161737 94.9159317 255.73027229 C97.73482507 255.6799499 100.55352097 255.62317284 103.37225342 255.56455994 C111.38812997 255.39893893 119.40419592 255.24403721 127.42041016 255.09570312 C132.32589467 255.00447735 137.23115507 254.90486949 142.13637543 254.80044365 C143.99394277 254.76258056 145.85157739 254.72786531 147.70926666 254.69655037 C173.92598438 255.06575687 173.92598438 255.06575687 196.63427734 244.08666992 C210.10833666 226.60205509 206.29191335 196.28379066 206.29833984 175.48901367 C206.30156258 173.01346824 206.30492737 170.53792299 206.3084259 168.06237793 C206.31438307 162.89175984 206.31626939 157.72115838 206.31567383 152.55053711 C206.31557253 145.99320814 206.32920679 139.43598823 206.34644604 132.878685 C206.35768107 127.76846854 206.35958953 122.65827746 206.3590641 117.54804993 C206.36022767 115.13405482 206.36455555 112.7200587 206.37239647 110.30607605 C206.40818643 98.14804624 206.21634191 86.07517069 205.2331543 73.9519043 C205.15452998 72.97388603 205.07590567 71.99586777 204.9948988 70.98821259 C204.0916465 60.99731597 202.42647883 49.8645029 194.63818359 42.78979492 C183.16034945 33.77149666 166.39085361 33.90513993 152.44287109 33.52807617 C151.16565186 33.4905423 149.88843262 33.45300842 148.57250977 33.41433716 C125.79266895 32.81304482 102.99009488 32.99638686 80.2044735 33.01669335 C75.48152326 33.02046852 70.758594 33.01910166 66.03564453 33.01489258 C30.92297783 32.91760381 30.92297783 32.91760381 -4.18212891 33.52807617 C-5.86689331 33.57362137 -5.86689331 33.57362137 -7.58569336 33.62008667 C-29.53741953 34.2407329 -29.53741953 34.2407329 -48.37353516 44.20385742 C-58.44962591 57.27909791 -57.31793751 76.32220202 -57.82324219 92.02587891 C-57.90286817 94.39868537 -58.00570945 96.76960759 -58.11181641 99.14135742 C-58.12864471 99.85706406 -58.14547302 100.57277069 -58.16281128 101.31016541 C-58.40900156 106.32756792 -59.72264485 109.26403111 -62.86962891 113.14526367 C-68.2415963 117.20164721 -72.11799586 118.69867622 -78.86962891 118.14526367 C-84.66539315 116.2529899 -88.0020916 113.65093529 -90.86962891 108.14526367 C-97.29333807 89.00261036 -91.97119209 54.19077211 -83.05322266 36.25073242 C-74.23382567 20.56210214 -63.47484648 10.32863718 -46.18212891 4.77026367 C-30.89138381 0.56299199 -15.75922873 -0.00530424 0 0 Z " fill="#000000" transform="translate(245.86962890625,47.854736328125)"/>
<path d="M0 0 C15.2412587 11.68108682 25.13623147 27.85829547 27.8671875 46.92578125 C29.83982908 66.6278435 25.11746611 85.17410768 13.18359375 101.0859375 C2.13979872 114.22765775 -12.84393249 123.14266141 -29.81640625 126.0859375 C-51.74524644 127.45532292 -70.46862926 124.74869512 -87.6484375 110.03515625 C-88.36386719 109.39191406 -89.07929687 108.74867188 -89.81640625 108.0859375 C-90.43902344 107.55613281 -91.06164062 107.02632813 -91.703125 106.48046875 C-104.21805368 95.09047748 -110.92501362 77.40907374 -112.03515625 60.81640625 C-112.51199769 43.11366773 -107.81815557 26.98875662 -96.81640625 13.0859375 C-96.17058594 12.25191406 -95.52476563 11.41789062 -94.859375 10.55859375 C-71.35704736 -17.74012729 -29.3879221 -19.97237424 0 0 Z M-69.81640625 32.0859375 C-75.65176845 39.62020262 -79.57018887 48.95261745 -79.16015625 58.60546875 C-77.55722781 70.17205465 -73.07064702 79.035145 -64.00390625 86.3984375 C-54.41437327 92.95585148 -45.19327742 94.21899987 -33.81640625 93.0859375 C-24.06903507 90.80300057 -16.23187891 84.67589812 -10.359375 76.70703125 C-5.49238487 68.43930878 -3.45367216 59.06854195 -5.2890625 49.6640625 C-8.19189825 38.46989349 -14.01495859 30.25985373 -23.81640625 24.0859375 C-39.70624895 15.62728439 -57.49139777 19.54470081 -69.81640625 32.0859375 Z " fill="#000000" transform="translate(201.81640625,209.9140625)"/>
<path d="M0 0 C5.08386643 4.58787946 7.32557599 7.70052641 7.76953125 14.46875 C7.53616573 18.80142309 6.31433206 22.07317742 4.5 25.9375 C4.02300659 26.98127808 4.02300659 26.98127808 3.53637695 28.04614258 C2.56476702 30.14494469 1.56907162 32.23026843 0.5625 34.3125 C0.01078125 35.45847656 -0.5409375 36.60445313 -1.109375 37.78515625 C-13.33231193 61.73629218 -33.74952506 80.08574498 -59.43640137 88.45239258 C-81.64608192 95.27794558 -104.91124509 94.93295036 -127.90338135 95.35424805 C-171.16033768 95.45224816 -171.16033768 95.45224816 -208.04296875 115.8125 C-216.57203015 124.71722968 -221.602399 134.18007985 -226.54467773 145.39111328 C-230.65542321 154.52559432 -230.65542321 154.52559432 -235.4375 157.3125 C-241.25135476 159.25045159 -247.35858776 159.33305692 -252.875 156.625 C-257.64025757 152.32464561 -260.24432916 149.13279426 -260.69140625 142.60546875 C-260.62643174 138.08716182 -259.29576687 134.66360008 -257.375 130.625 C-256.89800659 129.5879895 -256.89800659 129.5879895 -256.41137695 128.5300293 C-255.44080053 126.44687008 -254.44422187 124.37839819 -253.4375 122.3125 C-252.88578125 121.1678125 -252.3340625 120.023125 -251.765625 118.84375 C-240.16051489 96.07562922 -220.90682271 77.49127063 -196.4375 69.3125 C-193.32985002 68.32733227 -190.20681745 67.4231406 -187.0625 66.5625 C-186.34481445 66.36358154 -185.62712891 66.16466309 -184.88769531 65.9597168 C-172.71427501 62.84418729 -160.09533166 62.04073326 -147.58041 61.79177856 C-145.415913 61.74847399 -143.25187672 61.69458866 -141.087677 61.63842773 C-135.72150213 61.50117242 -130.35497916 61.38073565 -124.98840332 61.26037598 C-120.42243553 61.15735172 -115.85673005 61.04742028 -111.29114151 60.92874146 C-109.18782346 60.87674616 -107.08446896 60.83446089 -104.98092651 60.79272461 C-81.59007398 60.19513298 -59.13997557 55.82840782 -42.4375 38.3125 C-35.66211658 30.65631674 -31.35521362 22.56951513 -27.26171875 13.29296875 C-22.07764607 1.7183432 -22.07764607 1.7183432 -16.5625 -1.02734375 C-10.84777773 -2.80268946 -5.3477927 -2.62528005 0 0 Z " fill="#000000" transform="translate(286.4375,305.6875)"/>
<path d="M0 0 C1.34750062 -0.00734613 2.69499496 -0.01593395 4.04248047 -0.02566528 C7.69136229 -0.04783382 11.34001797 -0.05081431 14.98895788 -0.04891777 C18.04050823 -0.04879784 21.09201105 -0.05737102 24.14354813 -0.06569529 C31.3460567 -0.08491284 38.54844938 -0.08781932 45.75097656 -0.08105469 C53.16857222 -0.07441595 60.58567035 -0.09727489 68.00316513 -0.13436842 C74.38300522 -0.16510914 80.76268564 -0.17642071 87.14259827 -0.1725316 C90.948 -0.17046847 94.75301454 -0.17587508 98.55834579 -0.20042419 C102.13894171 -0.22276152 105.71873137 -0.22075688 109.29933167 -0.20049667 C111.23007027 -0.19548588 113.16082437 -0.21505515 115.09146118 -0.23550415 C122.23500452 -0.16668424 127.32835418 0.55729279 132.77783203 5.41992188 C136.40877313 9.91366086 136.28017297 13.95535996 136.12939453 19.54101562 C135.49210918 24.75967456 132.98751836 27.32825372 129.21533203 30.73242188 C125.50183587 33.30330383 122.69888474 33.54716082 118.2943573 33.56036377 C116.58469032 33.56892899 116.58469032 33.56892899 114.84048462 33.57766724 C113.58899628 33.5787851 112.33750793 33.57990295 111.0480957 33.58105469 C109.73080978 33.58601959 108.41352386 33.5909845 107.05632019 33.59609985 C103.44050831 33.60921766 99.824715 33.61566765 96.20888305 33.62011051 C93.949279 33.62304236 91.68968001 33.62714739 89.43007851 33.63161469 C82.35862857 33.64528826 75.28719022 33.65495548 68.21572798 33.65881658 C60.055922 33.66329652 51.8962836 33.68084194 43.73652858 33.70981717 C37.42729353 33.7314426 31.11810561 33.74152132 24.8088339 33.74285769 C21.04154442 33.74390515 17.27441251 33.74980013 13.50716209 33.76767731 C9.96208916 33.78417289 6.41729196 33.78630645 2.87219429 33.7775383 C0.95536417 33.77640251 -0.96145687 33.7901086 -2.87823486 33.80429077 C-9.55301239 33.77191693 -14.74367766 33.66706366 -19.86669922 28.88476562 C-24.60677223 22.68620861 -25.09687521 18.19288853 -24.22216797 10.41992188 C-22.61597505 6.44597906 -20.44433234 4.25740688 -16.943573 1.85852051 C-11.34255379 -0.3066882 -5.95545538 -0.01389286 0 0 Z " fill="#000000" transform="translate(264.22216796875,132.580078125)"/>
<path d="M0 0 C0.6930574 -0.0049649 1.38611481 -0.00992981 2.10017395 -0.01504517 C4.39255773 -0.02964735 6.68487228 -0.03646588 8.97729492 -0.04199219 C10.57289125 -0.0477457 12.16848756 -0.05350341 13.76408386 -0.05926514 C17.11062949 -0.06976991 20.45715114 -0.07561585 23.80371094 -0.07910156 C28.08428318 -0.08458206 32.36453666 -0.10860259 36.64500904 -0.13707352 C39.9419191 -0.15573209 43.2387529 -0.16090723 46.53571129 -0.16243744 C48.11331612 -0.16545776 49.69091981 -0.17346532 51.26847267 -0.18662262 C53.48000691 -0.20374934 55.69076942 -0.20178707 57.90234375 -0.1953125 C59.15904373 -0.19895813 60.41574371 -0.20260376 61.71052551 -0.20635986 C66.13339111 0.26685546 69.52043803 1.64437158 72.78979492 4.69628906 C77.52986793 10.89484608 78.01997092 15.38816616 77.14526367 23.16113281 C74.93675322 28.62529228 71.48051806 30.87288239 66.14526367 33.16113281 C62.66824341 33.55554199 62.66824341 33.55554199 58.7980957 33.58105469 C58.08830566 33.58952423 57.37851562 33.59799377 56.6472168 33.60671997 C54.31565109 33.62999689 51.98474898 33.63111435 49.65307617 33.62988281 C48.0217157 33.63699048 46.39035771 33.64469036 44.75900269 33.6529541 C41.34455411 33.66637784 37.93033667 33.66797742 34.51586914 33.66210938 C30.15568498 33.65621778 25.79661605 33.6867912 21.43664742 33.72722626 C18.06841126 33.75316782 14.70044126 33.75597483 11.33211899 33.75233459 C9.72545445 33.75402009 8.11877687 33.76360739 6.51221085 33.78147888 C-9.88592713 33.94381836 -9.88592713 33.94381836 -15.85473633 28.16113281 C-19.48567743 23.66739383 -19.35707726 19.62569473 -19.20629883 14.04003906 C-18.56901348 8.82138013 -16.06442266 6.25280097 -12.29223633 2.84863281 C-8.17218282 -0.00371192 -4.90105188 0.02667946 0 0 Z " fill="#000000" transform="translate(322.854736328125,217.8388671875)"/>
</svg>
